<mxfile host="app.diagrams.net" modified="2021-05-13T18:44:15.937Z" agent="5.0 (Windows NT 10.0; Win64; x64) AppleWebKit/537.36 (KHTML, like Gecko) Chrome/90.0.4430.93 Safari/537.36 Edg/90.0.818.56" etag="6G4dYwbXL_M5fxWMOjli" version="14.6.13" type="github">
  <diagram name="Basic Page Navigation" id="f1b7ffb7-ca1e-a977-7cf5-a751b3c06c05">
    <mxGraphModel dx="2062" dy="1128" grid="1" gridSize="10" guides="1" tooltips="1" connect="1" arrows="1" fold="1" page="1" pageScale="1" pageWidth="826" pageHeight="1169" background="#ffffff" math="0" shadow="0">
      <root>
        <mxCell id="0" />
        <mxCell id="1" parent="0" />
        <mxCell id="cs4QDS3-siQukoJEl-UC-64" value="" style="group" vertex="1" connectable="0" parent="1">
          <mxGeometry width="200" height="390" as="geometry" />
        </mxCell>
        <mxCell id="cs4QDS3-siQukoJEl-UC-61" value="" style="verticalLabelPosition=bottom;verticalAlign=top;html=1;shadow=0;dashed=0;strokeWidth=1;shape=mxgraph.android.phone2;strokeColor=#c0c0c0;" vertex="1" parent="cs4QDS3-siQukoJEl-UC-64">
          <mxGeometry width="200" height="390" as="geometry" />
        </mxCell>
        <mxCell id="cs4QDS3-siQukoJEl-UC-63" value="Login Page" style="rounded=0;whiteSpace=wrap;html=1;rotation=90;align=center;horizontal=0;" vertex="1" parent="cs4QDS3-siQukoJEl-UC-64">
          <mxGeometry x="-55" y="105" width="310" height="180" as="geometry" />
        </mxCell>
        <mxCell id="cs4QDS3-siQukoJEl-UC-65" value="" style="group" vertex="1" connectable="0" parent="1">
          <mxGeometry x="240" width="200" height="390" as="geometry" />
        </mxCell>
        <mxCell id="cs4QDS3-siQukoJEl-UC-66" value="" style="verticalLabelPosition=bottom;verticalAlign=top;html=1;shadow=0;dashed=0;strokeWidth=1;shape=mxgraph.android.phone2;strokeColor=#c0c0c0;" vertex="1" parent="cs4QDS3-siQukoJEl-UC-65">
          <mxGeometry width="200" height="390" as="geometry" />
        </mxCell>
        <mxCell id="cs4QDS3-siQukoJEl-UC-67" value="Login Fail/Success" style="rounded=0;whiteSpace=wrap;html=1;rotation=90;align=center;horizontal=0;" vertex="1" parent="cs4QDS3-siQukoJEl-UC-65">
          <mxGeometry x="-55" y="105" width="310" height="180" as="geometry" />
        </mxCell>
        <mxCell id="cs4QDS3-siQukoJEl-UC-68" value="" style="group" vertex="1" connectable="0" parent="1">
          <mxGeometry x="480" width="200" height="390" as="geometry" />
        </mxCell>
        <mxCell id="cs4QDS3-siQukoJEl-UC-69" value="" style="verticalLabelPosition=bottom;verticalAlign=top;html=1;shadow=0;dashed=0;strokeWidth=1;shape=mxgraph.android.phone2;strokeColor=#c0c0c0;" vertex="1" parent="cs4QDS3-siQukoJEl-UC-68">
          <mxGeometry width="200" height="390" as="geometry" />
        </mxCell>
        <mxCell id="cs4QDS3-siQukoJEl-UC-70" value="MainPage" style="rounded=0;whiteSpace=wrap;html=1;rotation=90;align=center;horizontal=0;" vertex="1" parent="cs4QDS3-siQukoJEl-UC-68">
          <mxGeometry x="-55" y="105" width="310" height="180" as="geometry" />
        </mxCell>
        <mxCell id="cs4QDS3-siQukoJEl-UC-71" value="" style="group" vertex="1" connectable="0" parent="1">
          <mxGeometry x="880" width="200" height="390" as="geometry" />
        </mxCell>
        <mxCell id="cs4QDS3-siQukoJEl-UC-72" value="" style="verticalLabelPosition=bottom;verticalAlign=top;html=1;shadow=0;dashed=0;strokeWidth=1;shape=mxgraph.android.phone2;strokeColor=#c0c0c0;" vertex="1" parent="cs4QDS3-siQukoJEl-UC-71">
          <mxGeometry width="200" height="390" as="geometry" />
        </mxCell>
        <mxCell id="cs4QDS3-siQukoJEl-UC-73" value="Video Page" style="rounded=0;whiteSpace=wrap;html=1;rotation=90;align=center;horizontal=0;" vertex="1" parent="cs4QDS3-siQukoJEl-UC-71">
          <mxGeometry x="-55" y="105" width="310" height="180" as="geometry" />
        </mxCell>
        <mxCell id="cs4QDS3-siQukoJEl-UC-74" style="edgeStyle=orthogonalEdgeStyle;rounded=0;orthogonalLoop=1;jettySize=auto;html=1;" edge="1" parent="1" source="cs4QDS3-siQukoJEl-UC-63" target="cs4QDS3-siQukoJEl-UC-67">
          <mxGeometry relative="1" as="geometry" />
        </mxCell>
        <mxCell id="cs4QDS3-siQukoJEl-UC-75" style="edgeStyle=orthogonalEdgeStyle;rounded=0;orthogonalLoop=1;jettySize=auto;html=1;entryX=0.025;entryY=0.499;entryDx=0;entryDy=0;entryPerimeter=0;" edge="1" parent="1" source="cs4QDS3-siQukoJEl-UC-67" target="cs4QDS3-siQukoJEl-UC-69">
          <mxGeometry relative="1" as="geometry" />
        </mxCell>
        <mxCell id="cs4QDS3-siQukoJEl-UC-78" style="edgeStyle=orthogonalEdgeStyle;rounded=0;orthogonalLoop=1;jettySize=auto;html=1;" edge="1" parent="1" source="cs4QDS3-siQukoJEl-UC-76" target="cs4QDS3-siQukoJEl-UC-73">
          <mxGeometry relative="1" as="geometry" />
        </mxCell>
        <mxCell id="cs4QDS3-siQukoJEl-UC-82" style="edgeStyle=orthogonalEdgeStyle;rounded=0;orthogonalLoop=1;jettySize=auto;html=1;entryX=0.475;entryY=-0.004;entryDx=0;entryDy=0;entryPerimeter=0;" edge="1" parent="1" source="cs4QDS3-siQukoJEl-UC-76" target="cs4QDS3-siQukoJEl-UC-80">
          <mxGeometry relative="1" as="geometry">
            <mxPoint x="760" y="380" as="targetPoint" />
          </mxGeometry>
        </mxCell>
        <mxCell id="cs4QDS3-siQukoJEl-UC-76" value="MOB SELECT" style="shape=hexagon;perimeter=hexagonPerimeter2;whiteSpace=wrap;html=1;fixedSize=1;" vertex="1" parent="1">
          <mxGeometry x="700" y="155" width="120" height="80" as="geometry" />
        </mxCell>
        <mxCell id="cs4QDS3-siQukoJEl-UC-77" style="edgeStyle=orthogonalEdgeStyle;rounded=0;orthogonalLoop=1;jettySize=auto;html=1;entryX=0;entryY=0.5;entryDx=0;entryDy=0;" edge="1" parent="1" source="cs4QDS3-siQukoJEl-UC-70" target="cs4QDS3-siQukoJEl-UC-76">
          <mxGeometry relative="1" as="geometry" />
        </mxCell>
        <mxCell id="cs4QDS3-siQukoJEl-UC-79" value="" style="group" vertex="1" connectable="0" parent="1">
          <mxGeometry x="680" y="400" width="200" height="390" as="geometry" />
        </mxCell>
        <mxCell id="cs4QDS3-siQukoJEl-UC-80" value="" style="verticalLabelPosition=bottom;verticalAlign=top;html=1;shadow=0;dashed=0;strokeWidth=1;shape=mxgraph.android.phone2;strokeColor=#c0c0c0;" vertex="1" parent="cs4QDS3-siQukoJEl-UC-79">
          <mxGeometry x="10" width="200" height="390" as="geometry" />
        </mxCell>
        <mxCell id="cs4QDS3-siQukoJEl-UC-81" value="My MOBs" style="rounded=0;whiteSpace=wrap;html=1;rotation=90;align=center;horizontal=0;" vertex="1" parent="cs4QDS3-siQukoJEl-UC-79">
          <mxGeometry x="-45" y="105" width="310" height="180" as="geometry" />
        </mxCell>
        <mxCell id="cs4QDS3-siQukoJEl-UC-83" value="" style="group" vertex="1" connectable="0" parent="1">
          <mxGeometry x="1150" y="400" width="200" height="390" as="geometry" />
        </mxCell>
        <mxCell id="cs4QDS3-siQukoJEl-UC-84" value="" style="verticalLabelPosition=bottom;verticalAlign=top;html=1;shadow=0;dashed=0;strokeWidth=1;shape=mxgraph.android.phone2;strokeColor=#c0c0c0;" vertex="1" parent="cs4QDS3-siQukoJEl-UC-83">
          <mxGeometry x="10" width="200" height="390" as="geometry" />
        </mxCell>
        <mxCell id="cs4QDS3-siQukoJEl-UC-85" value="MOB Marketplace" style="rounded=0;whiteSpace=wrap;html=1;rotation=90;align=center;horizontal=0;" vertex="1" parent="cs4QDS3-siQukoJEl-UC-83">
          <mxGeometry x="-45" y="105" width="310" height="180" as="geometry" />
        </mxCell>
        <mxCell id="cs4QDS3-siQukoJEl-UC-91" style="edgeStyle=orthogonalEdgeStyle;rounded=0;orthogonalLoop=1;jettySize=auto;html=1;entryX=0;entryY=0.5;entryDx=0;entryDy=0;entryPerimeter=0;startArrow=classic;startFill=1;" edge="1" parent="1" source="cs4QDS3-siQukoJEl-UC-89" target="cs4QDS3-siQukoJEl-UC-84">
          <mxGeometry relative="1" as="geometry" />
        </mxCell>
        <mxCell id="cs4QDS3-siQukoJEl-UC-92" style="edgeStyle=orthogonalEdgeStyle;rounded=0;orthogonalLoop=1;jettySize=auto;html=1;entryX=0.5;entryY=0;entryDx=0;entryDy=0;startArrow=classic;startFill=1;" edge="1" parent="1" source="cs4QDS3-siQukoJEl-UC-89" target="cs4QDS3-siQukoJEl-UC-81">
          <mxGeometry relative="1" as="geometry" />
        </mxCell>
        <mxCell id="cs4QDS3-siQukoJEl-UC-89" value="Any MOBs selected from MOB Marketplace populate in My MOBs" style="shape=hexagon;perimeter=hexagonPerimeter2;whiteSpace=wrap;html=1;fixedSize=1;" vertex="1" parent="1">
          <mxGeometry x="945" y="537.5" width="160" height="115" as="geometry" />
        </mxCell>
        <mxCell id="cs4QDS3-siQukoJEl-UC-97" style="edgeStyle=orthogonalEdgeStyle;rounded=0;orthogonalLoop=1;jettySize=auto;html=1;startArrow=classic;startFill=1;entryX=0.465;entryY=-0.001;entryDx=0;entryDy=0;entryPerimeter=0;" edge="1" parent="1" source="cs4QDS3-siQukoJEl-UC-95" target="cs4QDS3-siQukoJEl-UC-99">
          <mxGeometry relative="1" as="geometry">
            <mxPoint x="580" y="620" as="targetPoint" />
          </mxGeometry>
        </mxCell>
        <mxCell id="cs4QDS3-siQukoJEl-UC-95" value="Settings" style="shape=hexagon;perimeter=hexagonPerimeter2;whiteSpace=wrap;html=1;fixedSize=1;" vertex="1" parent="1">
          <mxGeometry x="520" y="457.5" width="120" height="80" as="geometry" />
        </mxCell>
        <mxCell id="cs4QDS3-siQukoJEl-UC-96" style="edgeStyle=orthogonalEdgeStyle;rounded=0;orthogonalLoop=1;jettySize=auto;html=1;startArrow=classic;startFill=1;" edge="1" parent="1" source="cs4QDS3-siQukoJEl-UC-69" target="cs4QDS3-siQukoJEl-UC-95">
          <mxGeometry relative="1" as="geometry" />
        </mxCell>
        <mxCell id="cs4QDS3-siQukoJEl-UC-98" value="" style="group" vertex="1" connectable="0" parent="1">
          <mxGeometry y="600" width="200" height="390" as="geometry" />
        </mxCell>
        <mxCell id="cs4QDS3-siQukoJEl-UC-99" value="" style="verticalLabelPosition=bottom;verticalAlign=top;html=1;shadow=0;dashed=0;strokeWidth=1;shape=mxgraph.android.phone2;strokeColor=#c0c0c0;" vertex="1" parent="cs4QDS3-siQukoJEl-UC-98">
          <mxGeometry width="200" height="390" as="geometry" />
        </mxCell>
        <mxCell id="cs4QDS3-siQukoJEl-UC-100" value="" style="rounded=0;whiteSpace=wrap;html=1;rotation=90;align=center;horizontal=0;" vertex="1" parent="cs4QDS3-siQukoJEl-UC-98">
          <mxGeometry x="-55" y="105" width="310" height="180" as="geometry" />
        </mxCell>
        <mxCell id="cs4QDS3-siQukoJEl-UC-101" value="Application" style="rounded=1;whiteSpace=wrap;html=1;" vertex="1" parent="cs4QDS3-siQukoJEl-UC-98">
          <mxGeometry x="40" y="70" width="120" height="30" as="geometry" />
        </mxCell>
        <mxCell id="cs4QDS3-siQukoJEl-UC-102" value="Billing" style="rounded=1;whiteSpace=wrap;html=1;" vertex="1" parent="cs4QDS3-siQukoJEl-UC-98">
          <mxGeometry x="40" y="120" width="120" height="30" as="geometry" />
        </mxCell>
        <mxCell id="cs4QDS3-siQukoJEl-UC-103" value="Premium" style="rounded=1;whiteSpace=wrap;html=1;" vertex="1" parent="cs4QDS3-siQukoJEl-UC-98">
          <mxGeometry x="40" y="170" width="120" height="30" as="geometry" />
        </mxCell>
        <mxCell id="cs4QDS3-siQukoJEl-UC-104" value="Profile" style="rounded=1;whiteSpace=wrap;html=1;" vertex="1" parent="cs4QDS3-siQukoJEl-UC-98">
          <mxGeometry x="40" y="220" width="120" height="30" as="geometry" />
        </mxCell>
      </root>
    </mxGraphModel>
  </diagram>
</mxfile>
